<?xml version="1.0" encoding="utf-8"?>
<!-- Generator: Adobe Illustrator 27.2.0, SVG Export Plug-In . SVG Version: 6.00 Build 0)  -->
<svg version="1.1" xmlns="http://www.w3.org/2000/svg" xmlns:xlink="http://www.w3.org/1999/xlink"
	viewBox="0 0 24 24" xml:space="preserve">
<g id="Group_2234" transform="translate(-188 -17)">
	<g id="Group_2232" transform="translate(8 -28)">
		<path id="Rectangle_2580" d="M180.4,51h15.2c0.22,0,0.4,0.18,0.4,0.4v1.2c0,0.22-0.18,0.4-0.4,0.4h-15.2
			c-0.22,0-0.4-0.18-0.4-0.4v-1.2C180,51.18,180.18,51,180.4,51z"/>
		<path id="Rectangle_2581" d="M180.4,57h15.2c0.22,0,0.4,0.18,0.4,0.4v1.2c0,0.22-0.18,0.4-0.4,0.4h-15.2
			c-0.22,0-0.4-0.18-0.4-0.4v-1.2C180,57.18,180.18,57,180.4,57z"/>
		<path id="Rectangle_2582" d="M187.4,45h8.2c0.22,0,0.4,0.18,0.4,0.4v1.2c0,0.22-0.18,0.4-0.4,0.4h-8.2
			c-0.22,0-0.4-0.18-0.4-0.4v-1.2C187,45.18,187.18,45,187.4,45z"/>
	</g>
</g>
</svg>
